<svg width="143" height="48" viewBox="0 0 143 48" fill="none" xmlns="http://www.w3.org/2000/svg">
<path d="M18.144 12.536V16.92H12.192V35H6.72V16.92H0.768V12.536H18.144ZM25.0822 20.12C25.7222 19.1387 26.5222 18.3707 27.4823 17.816C28.4422 17.24 29.5089 16.952 30.6823 16.952V22.744H29.1783C27.8129 22.744 26.7889 23.0427 26.1062 23.64C25.4236 24.216 25.0822 25.24 25.0822 26.712V35H19.6102V17.144H25.0822V20.12ZM30.9298 26.04C30.9298 24.2053 31.2711 22.5947 31.9538 21.208C32.6578 19.8213 33.6071 18.7547 34.8018 18.008C35.9964 17.2613 37.3298 16.888 38.8018 16.888C40.0604 16.888 41.1591 17.144 42.0978 17.656C43.0578 18.168 43.7938 18.84 44.3058 19.672V17.144H49.7778V35H44.3058V32.472C43.7724 33.304 43.0258 33.976 42.0658 34.488C41.1271 35 40.0284 35.256 38.7698 35.256C37.3191 35.256 35.9964 34.8827 34.8018 34.136C33.6071 33.368 32.6578 32.2907 31.9538 30.904C31.2711 29.496 30.9298 27.8747 30.9298 26.04ZM44.3058 26.072C44.3058 24.7067 43.9218 23.6293 43.1538 22.84C42.4071 22.0507 41.4898 21.656 40.4018 21.656C39.3138 21.656 38.3858 22.0507 37.6178 22.84C36.8711 23.608 36.4978 24.6747 36.4978 26.04C36.4978 27.4053 36.8711 28.4933 37.6178 29.304C38.3858 30.0933 39.3138 30.488 40.4018 30.488C41.4898 30.488 42.4071 30.0933 43.1538 29.304C43.9218 28.5147 44.3058 27.4373 44.3058 26.072ZM51.3685 26.04C51.3685 24.2053 51.7098 22.5947 52.3925 21.208C53.0965 19.8213 54.0458 18.7547 55.2405 18.008C56.4352 17.2613 57.7685 16.888 59.2405 16.888C60.4138 16.888 61.4805 17.1333 62.4405 17.624C63.4218 18.1147 64.1898 18.776 64.7445 19.608V11.32H70.2165V35H64.7445V32.44C64.2325 33.2933 63.4965 33.976 62.5365 34.488C61.5978 35 60.4992 35.256 59.2405 35.256C57.7685 35.256 56.4352 34.8827 55.2405 34.136C54.0458 33.368 53.0965 32.2907 52.3925 30.904C51.7098 29.496 51.3685 27.8747 51.3685 26.04ZM64.7445 26.072C64.7445 24.7067 64.3605 23.6293 63.5925 22.84C62.8458 22.0507 61.9285 21.656 60.8405 21.656C59.7525 21.656 58.8245 22.0507 58.0565 22.84C57.3098 23.608 56.9365 24.6747 56.9365 26.04C56.9365 27.4053 57.3098 28.4933 58.0565 29.304C58.8245 30.0933 59.7525 30.488 60.8405 30.488C61.9285 30.488 62.8458 30.0933 63.5925 29.304C64.3605 28.5147 64.7445 27.4373 64.7445 26.072ZM89.7272 25.784C89.7272 26.296 89.6952 26.8293 89.6312 27.384H77.2472C77.3326 28.4933 77.6846 29.3467 78.3032 29.944C78.9432 30.52 79.7219 30.808 80.6392 30.808C82.0046 30.808 82.9539 30.232 83.4872 29.08H89.3112C89.0126 30.2533 88.4686 31.3093 87.6792 32.248C86.9112 33.1867 85.9406 33.9227 84.7672 34.456C83.5939 34.9893 82.2819 35.256 80.8312 35.256C79.0819 35.256 77.5246 34.8827 76.1592 34.136C74.7939 33.3893 73.7272 32.3227 72.9592 30.936C72.1912 29.5493 71.8072 27.928 71.8072 26.072C71.8072 24.216 72.1806 22.5947 72.9272 21.208C73.6952 19.8213 74.7619 18.7547 76.1272 18.008C77.4926 17.2613 79.0606 16.888 80.8312 16.888C82.5592 16.888 84.0952 17.2507 85.4392 17.976C86.7832 18.7013 87.8286 19.736 88.5752 21.08C89.3432 22.424 89.7272 23.992 89.7272 25.784ZM84.1272 24.344C84.1272 23.4053 83.8072 22.6587 83.1672 22.104C82.5272 21.5493 81.7272 21.272 80.7672 21.272C79.8499 21.272 79.0712 21.5387 78.4312 22.072C77.8126 22.6053 77.4286 23.3627 77.2792 24.344H84.1272ZM99.462 35.256C97.7127 35.256 96.134 34.8827 94.726 34.136C93.3393 33.3893 92.2407 32.3227 91.43 30.936C90.6407 29.5493 90.246 27.928 90.246 26.072C90.246 24.2373 90.6513 22.6267 91.462 21.24C92.2727 19.832 93.382 18.7547 94.79 18.008C96.198 17.2613 97.7767 16.888 99.526 16.888C101.275 16.888 102.854 17.2613 104.262 18.008C105.67 18.7547 106.779 19.832 107.59 21.24C108.401 22.6267 108.806 24.2373 108.806 26.072C108.806 27.9067 108.39 29.528 107.558 30.936C106.747 32.3227 105.627 33.3893 104.198 34.136C102.79 34.8827 101.211 35.256 99.462 35.256ZM99.462 30.52C100.507 30.52 101.393 30.136 102.118 29.368C102.865 28.6 103.238 27.5013 103.238 26.072C103.238 24.6427 102.875 23.544 102.15 22.776C101.446 22.008 100.571 21.624 99.526 21.624C98.4593 21.624 97.574 22.008 96.87 22.776C96.166 23.5227 95.814 24.6213 95.814 26.072C95.814 27.5013 96.1553 28.6 96.838 29.368C97.542 30.136 98.4167 30.52 99.462 30.52ZM119.389 21.688H116.445V35H110.973V21.688H108.989V17.144H110.973V16.632C110.973 14.4347 111.602 12.7707 112.861 11.64C114.12 10.488 115.965 9.912 118.397 9.912C118.802 9.912 119.101 9.92267 119.293 9.944V14.584C118.248 14.52 117.512 14.6693 117.085 15.032C116.658 15.3947 116.445 16.0453 116.445 16.984V17.144H119.389V21.688ZM129.64 21.688H126.696V35H121.224V21.688H119.24V17.144H121.224V16.632C121.224 14.4347 121.854 12.7707 123.112 11.64C124.371 10.488 126.216 9.912 128.648 9.912C129.054 9.912 129.352 9.92267 129.544 9.944V14.584C128.499 14.52 127.763 14.6693 127.336 15.032C126.91 15.3947 126.696 16.0453 126.696 16.984V17.144H129.64V21.688Z" fill="black"/>
</svg>
